# xmcd
#
# Track frame offsets: 
#        150
#        23115
#        41650
#        64130
#        83830
#        103527
#        124467
#        145567
#        168265
#        190330
#        214487
#
# Disc length: 3212 seconds
#
# Revision: 1
# Processed by: cddbd v1.5.2PL0 Copyright (c) Steve Scherf et al.
# Submitted via: ExactAudioCopy v1.0b3
#
DISCID=9b0c8a0b
DTITLE=反町隆史 - HIGH LIFE
DYEAR=1998
DGENRE=JPop
TTITLE0=HIGH LIFE
TTITLE1=POISON
TTITLE2=BELIEVE
TTITLE3=SINCERELY
TTITLE4=ONE [album mix]
TTITLE5=If you love me, don't forget me.
TTITLE6=Looking' for my dream
TTITLE7=Hold the world tight
TTITLE8=BREAKIN' THROUGH THE NIGHT
TTITLE9=FOR TOMORROW
TTITLE10=REAL LIFE
EXTD=YEAR: 1998
EXTT0=
EXTT1=
EXTT2=
EXTT3=
EXTT4=
EXTT5=
EXTT6=
EXTT7=
EXTT8=
EXTT9=
EXTT10=
PLAYORDER=
